Coordinates
version=1
nRows=40
nColumns=38
inDegrees=no

Units are S.I. units (second, meters, Newtons, ...)
If the header above contains a line with 'inDegrees', this indicates whether rotational values are in degrees (yes) or radians (no).

endheader
time	pelvis_tilt	pelvis_list	pelvis_rotation	pelvis_tx	pelvis_ty	pelvis_tz	hip_flexion_r	hip_adduction_r	hip_rotation_r	knee_angle_r	ankle_angle_r	subtalar_angle_r	mtp_angle_r	hip_flexion_l	hip_adduction_l	hip_rotation_l	knee_angle_l	ankle_angle_l	subtalar_angle_l	mtp_angle_l	lumbar_extension	lumbar_bending	lumbar_rotation	arm_flex_r	arm_add_r	arm_rot_r	elbow_flex_r	pro_sup_r	wrist_flex_r	wrist_dev_r	arm_flex_l	arm_add_l	arm_rot_l	elbow_flex_l	pro_sup_l	wrist_flex_l	wrist_dev_l
1.62	0.558787	1.5383	-1.85043	0.679938	1.1858	0.96242	0.0740517	-0.00286915	-0.173789	0.151433	-0.0254289	0	0	0.408144	-0.0312084	0.100713	1.0835	0.0334194	0	0	-0.076987	0.0463466	0.104804	0.370532	-0.152884	0.184753	0.468068	1.5708	0	0	-0.108833	-0.124088	-0.283708	0.463819	1.31468	0	0
1.63	0.651002	1.53645	-1.94869	0.679411	1.17954	0.963126	0.0623069	-0.00326173	-0.167326	0.142959	-0.0235559	0	0	0.409617	-0.0343351	0.0793671	1.03883	0.0424648	0	0	-0.0809102	0.0415688	0.113658	0.38935	-0.148928	0.204248	0.48087	1.5708	0	0	-0.106179	-0.123637	-0.283444	0.462621	1.31736	0	0
1.64	0.72527	1.53503	-2.02872	0.678968	1.17332	0.96371	0.0510674	-0.00327995	-0.160862	0.134612	-0.0216479	0	0	0.410166	-0.0378536	0.0573524	0.992218	0.0506359	0	0	-0.084077	0.0374814	0.122088	0.408434	-0.144392	0.223237	0.491845	1.5708	0	0	-0.10426	-0.123127	-0.283212	0.461702	1.31952	0	0
1.65	0.783904	1.53385	-2.09253	0.678691	1.16711	0.964194	0.0398091	-0.00297448	-0.154845	0.125929	-0.0196645	0	0	0.409499	-0.0410429	0.0355769	0.9437	0.0567634	0	0	-0.086862	0.0340263	0.129932	0.427298	-0.139529	0.241375	0.501874	1.5708	0	0	-0.102964	-0.122613	-0.281755	0.46107	1.32254	0	0
1.66	0.830162	1.53278	-2.14342	0.67855	1.1609	0.964592	0.0283084	-0.0024762	-0.149343	0.116822	-0.0174878	0	0	0.407417	-0.0436493	0.0139446	0.893374	0.0605776	0	0	-0.0893773	0.0311346	0.13732	0.445783	-0.13441	0.258818	0.51134	1.5708	0	0	-0.101966	-0.121823	-0.279697	0.460016	1.32572	0	0
1.67	0.874405	1.53141	-2.19209	0.678576	1.15466	0.964947	0.0165106	-0.0024552	-0.143986	0.107706	-0.0153557	0	0	0.403355	-0.0449783	-0.00776885	0.840761	0.0619602	0	0	-0.0918096	0.0282033	0.144396	0.464024	-0.128718	0.275438	0.519968	1.5708	0	0	-0.101116	-0.120673	-0.278336	0.458678	1.3276	0	0
1.68	0.900836	1.52986	-2.22742	0.679436	1.14866	0.96517	0.00518529	-0.00260334	-0.136228	0.0991292	-0.0140774	0	0	0.395462	-0.0320094	-0.0244996	0.788004	0.0528528	0	0	-0.0945608	0.0276094	0.153359	0.482708	-0.123409	0.290949	0.528124	1.5708	0	0	-0.101666	-0.117585	-0.276293	0.456883	1.3295	0	0
1.69	0.946324	1.52692	-2.27836	0.679674	1.1423	0.965527	-0.00745965	-0.00460332	-0.130292	0.0905606	-0.0114898	0	0	0.387024	-0.0329067	-0.0491396	0.731617	0.0517815	0	0	-0.0974433	0.0234193	0.161812	0.500023	-0.116853	0.306091	0.535106	1.5708	0	0	-0.100877	-0.116334	-0.273329	0.454496	1.33229	0	0
1.7	0.987739	1.52351	-2.32609	0.680051	1.13586	0.965838	-0.0199016	-0.00745784	-0.124257	0.0830305	-0.00842182	0	0	0.376484	-0.0329021	-0.0758571	0.67405	0.0496082	0	0	-0.100133	0.0190545	0.171221	0.516752	-0.110559	0.322065	0.541243	1.5708	0	0	-0.100244	-0.114836	-0.2695	0.451662	1.33507	0	0
1.71	1.0167	1.51986	-2.36122	0.680577	1.12939	0.966095	-0.0324068	-0.0105883	-0.119125	0.0764001	-0.00480761	0	0	0.364301	-0.0318742	-0.10258	0.616357	0.0468826	0	0	-0.102869	0.0149506	0.180587	0.532942	-0.104423	0.338397	0.546996	1.5708	0	0	-0.0996556	-0.113162	-0.265137	0.448202	1.33759	0	0
1.72	1.05083	1.51727	-2.40219	0.681158	1.12297	0.966158	-0.0426622	-0.013621	-0.113378	0.0713092	-0.000549534	0	0	0.352626	-0.0303925	-0.12969	0.559583	0.0436271	0	0	-0.10421	0.0113996	0.190635	0.548907	-0.0980533	0.353857	0.551103	1.5708	0	0	-0.0992233	-0.111216	-0.261512	0.44415	1.33943	0	0
1.73	1.08709	1.51541	-2.44487	0.681963	1.11655	0.966069	-0.0513111	-0.0166846	-0.108943	0.0678411	0.00465744	0	0	0.341219	-0.027943	-0.155785	0.504036	0.0397236	0	0	-0.104365	0.00851302	0.200294	0.564505	-0.0913094	0.368253	0.553501	1.5708	0	0	-0.0991265	-0.108926	-0.25776	0.439706	1.34169	0	0
1.74	1.12215	1.51387	-2.48566	0.682883	1.11023	0.965853	-0.0586654	-0.0197252	-0.105574	0.0662145	0.0107559	0	0	0.329812	-0.0242791	-0.179202	0.449733	0.0344219	0	0	-0.104393	0.00595654	0.209309	0.579897	-0.0846458	0.382835	0.555688	1.5708	0	0	-0.0986798	-0.106499	-0.254129	0.434886	1.34408	0	0
1.75	1.16833	1.51339	-2.53689	0.683877	1.10395	0.965426	-0.0635956	-0.0223554	-0.102856	0.0665315	0.0174325	0	0	0.320088	-0.0198555	-0.198891	0.398158	0.0283155	0	0	-0.103075	0.0038348	0.217914	0.59421	-0.0778634	0.395329	0.558411	1.5708	0	0	-0.0981604	-0.104382	-0.251426	0.429942	1.34527	0	0
1.76	1.20441	1.51172	-2.57847	0.684913	1.09764	0.965045	-0.0687539	-0.0258805	-0.100049	0.0684556	0.0248024	0	0	0.307885	-0.013586	-0.216075	0.34613	0.0188222	0	0	-0.102932	0.000913832	0.22662	0.608736	-0.070949	0.409743	0.559909	1.5708	0	0	-0.0972021	-0.102356	-0.248607	0.424309	1.34693	0	0
1.77	1.24184	1.51085	-2.62069	0.686066	1.09136	0.964569	-0.0722701	-0.0287458	-0.0981874	0.0722256	0.0324605	0	0	0.296661	-0.00694732	-0.228745	0.296825	0.00680652	0	0	-0.101988	-0.00139134	0.234561	0.622726	-0.0636562	0.423075	0.560494	1.5708	0	0	-0.0961697	-0.100223	-0.245645	0.418181	1.34914	0	0
1.78	1.27723	1.50981	-2.66027	0.687406	1.08507	0.964095	-0.0751428	-0.0318379	-0.0971637	0.0776577	0.040765	0	0	0.285699	0.000479174	-0.238071	0.250504	-0.00828446	0	0	-0.101088	-0.00368097	0.241662	0.636497	-0.0560987	0.436793	0.56011	1.5708	0	0	-0.0949484	-0.0981744	-0.242514	0.410826	1.35126	0	0
1.79	1.31562	1.50875	-2.70207	0.688931	1.0788	0.963609	-0.0772282	-0.0351489	-0.0967998	0.0844601	0.0495367	0	0	0.276074	0.00817562	-0.244302	0.208828	-0.0268119	0	0	-0.0998441	-0.00606686	0.24798	0.649486	-0.0484605	0.449819	0.559516	1.5708	0	0	-0.0935375	-0.0963064	-0.239425	0.403175	1.34974	0	0
1.8	1.35125	1.5076	-2.74078	0.690515	1.07252	0.963145	-0.079337	-0.0385438	-0.0969681	0.0914638	0.0581961	0	0	0.267595	0.0155066	-0.248752	0.172279	-0.0487665	0	0	-0.0986724	-0.00863781	0.253885	0.662014	-0.0403904	0.461441	0.557497	1.5708	0	0	-0.091852	-0.0946991	-0.235043	0.395201	1.34635	0	0
1.81	1.38372	1.5063	-2.77631	0.692131	1.06618	0.962706	-0.0817054	-0.0421052	-0.0974011	0.0983527	0.0667663	0	0	0.260242	0.0221236	-0.253171	0.141825	-0.0695742	0	0	-0.0974857	-0.0114286	0.259623	0.673843	-0.0320002	0.471922	0.554604	1.5708	0	0	-0.0901386	-0.0933469	-0.229781	0.387039	1.34124	0	0
1.82	1.41101	1.50473	-2.80639	0.693854	1.05975	0.9623	-0.0844972	-0.0459906	-0.0983496	0.105391	0.0754875	0	0	0.253816	0.0283661	-0.25796	0.11771	-0.0875664	0	0	-0.0963749	-0.0144008	0.265076	0.68429	-0.0235212	0.481047	0.552372	1.5708	0	0	-0.088663	-0.0924839	-0.224829	0.379431	1.3325	0	0
1.83	1.43865	1.50379	-2.83648	0.695588	1.05331	0.961852	-0.0869409	-0.0491777	-0.0991743	0.1125	0.0839084	0	0	0.24947	0.0332197	-0.263976	0.100553	-0.101934	0	0	-0.0947847	-0.016923	0.270379	0.693386	-0.0153216	0.488657	0.551176	1.5708	0	0	-0.0874359	-0.0922838	-0.216748	0.372751	1.31756	0	0
1.84	1.46498	1.50304	-2.86489	0.69743	1.0469	0.961365	-0.0887857	-0.0522129	-0.100401	0.120729	0.0925451	0	0	0.246036	0.0373934	-0.269161	0.0885601	-0.112974	0	0	-0.0932137	-0.0191393	0.274606	0.702201	-0.00724105	0.497928	0.549826	1.5708	0	0	-0.0836895	-0.0899596	-0.228366	0.359921	1.3516	0	0
1.85	1.48825	1.5026	-2.88958	0.699358	1.04041	0.960824	-0.0913855	-0.0546711	-0.101274	0.127982	0.10054	0	0	0.243087	0.0407767	-0.272666	0.0812498	-0.120774	0	0	-0.0912392	-0.0210998	0.278772	0.709283	0.000328743	0.504752	0.549393	1.5708	0	0	-0.0825308	-0.0898462	-0.222318	0.352252	1.35226	0	0
1.86	1.50437	1.50243	-2.90686	0.701368	1.03388	0.960236	-0.0950606	-0.0566002	-0.101756	0.134266	0.108118	0	0	0.24001	0.0434755	-0.274201	0.078085	-0.125954	0	0	-0.0893996	-0.0226177	0.282381	0.715538	0.00756993	0.511981	0.54915	1.5708	0	0	-0.081968	-0.0900248	-0.216995	0.346106	1.35103	0	0
1.87	1.51904	1.50298	-2.92241	0.703439	1.02727	0.959573	-0.0992094	-0.0575878	-0.101879	0.139697	0.114888	0	0	0.23763	0.0449615	-0.27494	0.0795201	-0.129844	0	0	-0.0872775	-0.0234477	0.285871	0.720062	0.0144912	0.516672	0.55041	1.5708	0	0	-0.0818711	-0.0903512	-0.214605	0.341715	1.34975	0	0
1.88	1.52427	1.50385	-2.92837	0.70563	1.02059	0.958895	-0.104181	-0.0581579	-0.102461	0.145082	0.121712	0	0	0.23482	0.0456441	-0.275611	0.0843434	-0.134905	0	0	-0.0855916	-0.0236027	0.289001	0.723775	0.0207342	0.522728	0.552301	1.5708	0	0	-0.0817624	-0.0904686	-0.213823	0.337349	1.34999	0	0
1.89	1.523	1.50542	-2.92758	0.70793	1.01383	0.958176	-0.109909	-0.0579513	-0.103372	0.149975	0.128141	0	0	0.231571	0.0451086	-0.276138	0.0915067	-0.141157	0	0	-0.0838267	-0.0227825	0.291732	0.726495	0.0264297	0.528733	0.554521	1.5708	0	0	-0.0824081	-0.090845	-0.212453	0.334127	1.35012	0	0
1.9	1.51626	1.50791	-2.92113	0.710374	1.00696	0.957399	-0.116308	-0.0569894	-0.104952	0.15432	0.134262	0	0	0.22715	0.0438137	-0.274688	0.0979746	-0.146074	0	0	-0.0816524	-0.0207859	0.294236	0.727766	0.0312874	0.535225	0.557625	1.5708	0	0	-0.0841527	-0.0913776	-0.210226	0.332422	1.35004	0	0
1.91	1.51741	1.51109	-2.92244	0.712924	1.00005	0.956539	-0.12203	-0.0557634	-0.107295	0.158846	0.140031	0	0	0.222282	0.0427035	-0.269695	0.102327	-0.146134	0	0	-0.0784105	-0.0182697	0.296905	0.726948	0.0355484	0.540083	0.562495	1.5708	0	0	-0.0867907	-0.0920388	-0.20751	0.332737	1.34864	0	0
1.92	1.52899	1.5149	-2.93406	0.715558	0.993118	0.955616	-0.126876	-0.0542724	-0.109488	0.163624	0.145342	0	0	0.217553	0.0415151	-0.26377	0.105679	-0.141067	0	0	-0.0740718	-0.0152384	0.299459	0.724583	0.0395303	0.543654	0.56781	1.5708	0	0	-0.0896805	-0.0925431	-0.206228	0.333523	1.3475	0	0
1.93	1.54169	1.51897	-2.94577	0.718433	0.986149	0.954717	-0.131824	-0.0526534	-0.11215	0.168558	0.150395	0	0	0.212279	0.0405908	-0.257925	0.107757	-0.13566	0	0	-0.0693092	-0.0117623	0.300795	0.720817	0.0428767	0.547381	0.573875	1.5708	0	0	-0.0932996	-0.0933423	-0.204376	0.334627	1.34679	0	0
1.94	1.55489	1.52241	-2.95703	0.721507	0.979297	0.953963	-0.136595	-0.0517708	-0.115084	0.174185	0.154662	0	0	0.20662	0.0406993	-0.252411	0.10838	-0.133091	0	0	-0.0649567	-0.00909041	0.300969	0.715863	0.0456539	0.55041	0.580997	1.5708	0	0	-0.0967045	-0.0940651	-0.203191	0.336213	1.34608	0	0
1.95	1.57085	1.52386	-2.97018	0.724742	0.972682	0.953512	-0.140764	-0.0532053	-0.118329	0.181315	0.158024	0	0	0.201263	0.0431653	-0.24749	0.109368	-0.130676	0	0	-0.0616128	-0.00902301	0.300081	0.709941	0.048186	0.551414	0.588657	1.5708	0	0	-0.0993416	-0.094959	-0.202086	0.338245	1.34562	0	0
1.96	1.58092	1.52215	-2.97605	0.728077	0.966307	0.953557	-0.144965	-0.0578919	-0.122458	0.189924	0.159995	0	0	0.195934	0.0488609	-0.242123	0.112542	-0.125157	0	0	-0.0601128	-0.0131573	0.297864	0.702933	0.050868	0.549173	0.596901	1.5708	0	0	-0.100544	-0.0966686	-0.199395	0.340304	1.34638	0	0
1.97	1.58509	1.51791	-2.97463	0.731448	0.960145	0.95414	-0.148883	-0.064991	-0.127702	0.200245	0.160224	0	0	0.190584	0.0567603	-0.236325	0.117934	-0.116967	0	0	-0.0602107	-0.0206463	0.294431	0.694613	0.0540732	0.543972	0.605447	1.5708	0	0	-0.0998887	-0.0992307	-0.195851	0.341095	1.34776	0	0
1.98	1.58959	1.51307	-2.9726	0.734844	0.954083	0.955123	-0.152015	-0.0725941	-0.133878	0.212053	0.158576	0	0	0.18506	0.0648205	-0.231043	0.123763	-0.108404	0	0	-0.0607583	-0.0289044	0.290212	0.684942	0.0570536	0.538493	0.614937	1.5708	0	0	-0.098094	-0.102293	-0.193652	0.340898	1.3473	0	0
1.99	1.60293	1.50957	-2.97886	0.738276	0.948044	0.956258	-0.153624	-0.0789669	-0.14105	0.225017	0.155356	0	0	0.179721	0.0712069	-0.226326	0.12885	-0.100774	0	0	-0.0601765	-0.0353224	0.285646	0.673795	0.0592112	0.535041	0.62489	1.5708	0	0	-0.0962781	-0.105466	-0.19081	0.340084	1.34609	0	0
2	1.63233	1.50811	-3.00105	0.741758	0.941996	0.957351	-0.15306	-0.083741	-0.148895	0.239087	0.151072	0	0	0.174931	0.0753908	-0.221412	0.132557	-0.0932327	0	0	-0.057384	-0.0389793	0.280971	0.661091	0.0607348	0.533915	0.634972	1.5708	0	0	-0.0955863	-0.108354	-0.187342	0.340053	1.34486	0	0
2.01	1.68321	1.50853	-3.04519	0.745239	0.93595	0.958278	-0.149748	-0.0871759	-0.156467	0.254675	0.1463	0	0	0.171327	0.0775871	-0.216228	0.135239	-0.0852113	0	0	-0.0521126	-0.0401974	0.277093	0.646762	0.0609917	0.534885	0.646209	1.5708	0	0	-0.096208	-0.110907	-0.184336	0.34218	1.3432	0	0
